PathFileType	4	(X/Y/Z)	C:/Users/opensim2020/Desktop/walking_exp_matlab/subject06_walking22_straight_01.trc	
DataRate	CameraRate	NumFrames	NumMarkers	Units	OrigDataRate	OrigDataStartFrame	OrigNumFrames	
100.00	100.00	8	44	mm	100.00	830	141	
Frame#	Time	LFHD			RFHD			LBHD			RBHD			C7			T10			CLAV			STRN			RBAK			LSHO			LUPA			LELB			LFRM			LWRA			LWRB			LFIN			RSHO			RUPA			RELB			RFRM			RWRA			RWRB			RFIN			LASI			RASI			LPSI			RPSI			LTHI			LKNE			LTIB			LANK			LHEE			LTOE			RTHI			RKNE			RTIB			RANK			RHEE			RTOE			*39			*40			*41			*42			*43			
		X1	Y1	Z1	X2	Y2	Z2	X3	Y3	Z3	X4	Y4	Z4	X5	Y5	Z5	X6	Y6	Z6	X7	Y7	Z7	X8	Y8	Z8	X9	Y9	Z9	X10	Y10	Z10	X11	Y11	Z11	X12	Y12	Z12	X13	Y13	Z13	X14	Y14	Z14	X15	Y15	Z15	X16	Y16	Z16	X17	Y17	Z17	X18	Y18	Z18	X19	Y19	Z19	X20	Y20	Z20	X21	Y21	Z21	X22	Y22	Z22	X23	Y23	Z23	X24	Y24	Z24	X25	Y25	Z25	X26	Y26	Z26	X27	Y27	Z27	X28	Y28	Z28	X29	Y29	Z29	X30	Y30	Z30	X31	Y31	Z31	X32	Y32	Z32	X33	Y33	Z33	X34	Y34	Z34	X35	Y35	Z35	X36	Y36	Z36	X37	Y37	Z37	X38	Y38	Z38	X39	Y39	Z39	X40	Y40	Z40	X41	Y41	Z41	X42	Y42	Z42	X43	Y43	Z43	X44	Y44	Z44	

89	0.880	1378.50916	137.32349	1618.22827	1510.04053	148.30977	1609.21191	1391.46899	1.37817	1573.25732	1520.62683	13.70428	1569.43787	1446.23096	-7.73400	1416.82422	1450.37805	-57.91658	1088.18530	1441.15918	97.58164	1332.46667	1437.45020	127.31011	1156.47473	1533.25256	-86.98794	1252.02759	1281.34290	35.21469	1366.15527	1211.86243	-31.68706	1176.38245	1202.52246	-77.13834	1073.28699	1173.33484	-109.94989	928.42944	1196.14954	-85.09422	796.52832	1176.21277	-150.83252	816.03082	1166.66626	-144.09450	725.56970	1602.24426	62.24786	1369.45190	1706.71191	34.66180	1180.77979	1728.36548	55.90129	1064.38794	1737.15088	121.63970	967.46442	1684.25684	234.64095	882.32257	1730.59717	195.98262	853.03577	1719.83508	267.38373	810.50873	1350.18945	130.93005	929.65851	1569.53467	107.82462	930.76990	1356.38916	-27.44301	951.24005	1523.84192	-40.64466	956.57458	1284.92908	147.17010	622.17993	1323.50989	211.46506	477.91919	1345.05103	252.66986	225.43459	1393.30042	305.94785	64.70022	1443.35291	271.93951	47.11976	1392.54028	451.56482	66.03342	1613.70862	-4.84962	605.49396	1594.38562	-31.76875	479.66174	1577.52002	-223.83205	284.24210	1524.93933	-344.82263	143.37526	1481.15747	-388.67352	150.31790	1503.82910	-239.64673	35.06410	1445.81506	45.37775	1664.19446												 
90	0.890	1377.29248	152.09602	1618.97046	1508.94653	162.75467	1609.89038	1389.80029	16.17431	1573.50378	1518.98877	28.15854	1569.53149	1444.06042	7.23945	1416.75439	1449.14807	-41.05213	1087.69763	1439.84961	112.92439	1333.06433	1436.37354	143.53949	1157.16663	1530.71582	-71.82639	1251.35400	1279.59509	51.12554	1366.07629	1210.59131	-14.67765	1175.62573	1201.59448	-59.87575	1072.45972	1172.81946	-93.00010	927.62683	1195.95300	-68.35174	795.74744	1175.84094	-134.17062	815.39905	1166.45850	-127.74642	724.77008	1600.86548	76.43023	1369.94763	1705.39758	47.99328	1181.16199	1727.30151	68.59225	1064.70117	1736.50916	133.51154	967.22186	1684.35645	246.02283	881.09894	1730.58142	207.11351	852.16638	1720.20056	278.06943	809.10822	1349.47571	147.47527	930.03442	1568.48999	125.22132	930.76440	1355.41199	-10.95186	951.95093	1523.19763	-23.30930	956.74585	1285.45044	165.79356	623.62805	1322.79517	228.61964	479.22531	1345.90137	265.15005	226.37605	1392.69092	310.42087	65.03693	1442.50952	275.29950	49.91739	1393.72766	456.64609	56.80721	1615.13757	14.93925	604.28741	1597.56213	-10.00415	477.87207	1578.95691	-206.92068	288.70676	1526.98450	-333.57336	153.05228	1482.95654	-375.25140	163.84007	1503.50659	-240.01500	34.96457	1444.31262	59.85863	1664.49805												 
91	0.900	1376.08093	166.86938	1620.46863	1507.76758	177.09958	1611.32715	1388.00378	31.16229	1574.48572	1517.26697	42.57902	1570.46472	1442.00842	22.47887	1417.65466	1448.18225	-24.78829	1088.02356	1438.48865	128.15810	1334.25488	1435.19482	159.41516	1158.34424	1527.80798	-56.20132	1251.14734	1277.80383	67.01305	1366.50684	1209.22327	2.68357	1175.32971	1200.37756	-41.96774	1071.90503	1172.03906	-74.88140	926.93604	1195.67847	-50.61130	795.27240	1175.08252	-116.04446	814.84143	1166.26587	-110.38278	724.31482	1599.72974	90.68395	1371.01074	1703.86438	61.14029	1181.95947	1726.17908	81.09279	1065.30786	1735.77991	144.98294	967.06226	1684.31335	256.57874	879.44354	1730.43982	217.25557	851.31195	1720.62549	287.88007	807.31146	1348.42773	163.64346	930.94922	1567.02954	142.30768	930.92719	1355.09875	4.95143	953.88562	1523.12305	-6.04929	957.20880	1285.58093	183.03242	626.02820	1322.03467	246.04430	482.00571	1343.95813	277.98450	228.79034	1392.16223	315.68121	65.09205	1441.64697	278.85333	51.95528	1393.01392	460.41116	52.32232	1616.53052	35.92848	603.05676	1600.97205	13.62320	476.05319	1580.81531	-187.82057	293.59293	1529.18628	-319.93124	163.92862	1484.66138	-358.62939	178.59402	1503.34912	-241.12471	35.19088	1442.81128	74.15060	1665.57300												 
92	0.910	1374.81128	181.67393	1622.07251	1506.50574	191.48022	1612.90735	1386.36523	45.88773	1575.92419	1515.51440	57.01228	1571.87708	1440.22900	37.93456	1419.09631	1447.24512	-9.06736	1089.13330	1437.21533	143.45970	1335.75195	1433.94287	175.17484	1159.94348	1525.49561	-40.73781	1251.68982	1276.18799	83.22779	1367.39893	1207.90735	20.34471	1175.51355	1199.32202	-23.63483	1071.75366	1171.25000	-56.11401	926.65680	1195.34814	-31.73469	795.24854	1174.43494	-97.18924	814.61725	1165.98779	-91.67442	724.04437	1598.70691	105.25273	1372.52087	1702.24036	74.06621	1183.29089	1724.84314	93.47447	1066.35510	1734.99158	156.07768	967.10352	1684.43579	266.77222	877.80066	1730.28186	226.83949	850.31372	1721.21362	296.72461	805.28265	1347.15686	179.40720	932.67517	1565.15088	159.09128	931.58990	1355.66479	20.31309	956.18604	1523.56470	10.51757	957.70477	1285.67273	199.96849	629.90350	1321.67834	264.09753	485.61877	1342.36841	289.19357	231.10699	1391.63794	318.88992	65.82662	1440.88306	281.23578	53.54471	1392.29004	462.78552	47.55541	1617.83484	57.96540	601.79999	1604.14063	38.89635	474.18802	1583.22095	-166.47501	298.82855	1531.55859	-303.66797	175.24725	1486.67249	-339.96262	193.79745	1504.14856	-238.72035	37.73710	1441.23291	88.64735	1667.10876												 
93	0.920	1373.42676	196.49478	1623.49500	1505.13184	205.94040	1614.36597	1384.59924	60.72193	1577.35291	1513.81458	71.42417	1573.38391	1438.68298	53.45776	1420.52917	1446.74377	6.25203	1090.58301	1436.07935	158.76045	1337.25513	1432.81030	190.71194	1161.54565	1523.74109	-25.27227	1252.70215	1274.89612	99.46478	1368.68726	1206.53638	38.24466	1176.24390	1198.13745	-4.85922	1072.12610	1170.33325	-36.46366	926.74847	1194.95825	-11.73398	795.74762	1173.52747	-77.09835	814.60229	1165.64148	-71.57918	724.00281	1597.50208	120.26032	1374.28162	1700.34875	86.93013	1185.09155	1723.05481	105.79648	1067.83606	1734.02478	166.91377	967.44714	1684.64978	276.31870	875.87524	1730.24963	235.59729	849.34204	1721.91357	304.70972	803.00281	1345.82629	194.83609	934.90503	1563.15405	175.61662	932.56799	1356.77075	35.03770	958.35504	1524.37415	26.52628	958.17017	1284.23962	216.11913	633.67877	1321.37964	280.99969	489.04712	1339.87952	299.01929	232.65671	1391.88208	321.02625	66.15777	1440.58594	282.89026	54.43506	1392.99451	464.57117	44.75495	1619.08740	80.66241	600.24786	1606.81799	65.16164	472.30286	1585.75732	-142.69202	303.77148	1533.53320	-285.23044	187.09499	1488.91211	-319.53409	208.57849	1505.58765	-232.24367	42.44481	1439.56494	103.38182	1668.58105												 
94	0.930	1371.96179	211.20171	1624.71350	1503.76941	220.35461	1615.79309	1382.91772	75.42783	1578.47388	1512.16028	85.87838	1574.71924	1437.29639	68.76997	1421.77197	1446.31689	21.29830	1092.12585	1434.99072	174.03534	1338.64136	1431.83276	206.15251	1163.00745	1522.45764	-9.79294	1254.05176	1273.77307	115.76719	1370.14575	1205.65454	56.32627	1177.06030	1196.85559	14.22700	1072.71777	1169.32202	-15.98793	927.00012	1195.69019	8.12000	795.32489	1172.25610	-55.75452	814.58496	1165.21777	-50.05768	723.85046	1596.11011	135.37035	1376.10815	1698.52307	99.87546	1187.10620	1721.14136	118.39140	1069.59509	1732.97302	177.49580	967.91846	1684.87463	285.33356	873.88751	1730.25647	243.78854	848.30847	1722.71936	311.83820	800.46271	1344.27637	209.92569	937.47955	1561.24402	191.49655	933.72034	1358.02515	49.12474	960.24109	1525.27954	41.95739	958.61957	1282.28735	231.22984	636.71289	1321.25537	295.80429	491.23517	1338.79456	307.86414	233.38780	1392.48120	323.33511	66.60005	1440.65295	284.14978	55.16458	1394.72729	466.56686	43.34501	1619.96777	103.86417	598.82257	1608.72375	92.01694	470.71725	1587.89880	-117.00526	308.25375	1535.72400	-263.55145	198.23790	1491.25977	-295.67920	222.96535	1507.80103	-224.76088	46.99995	1437.83826	117.95587	1669.81812												 
95	0.940	1370.39648	225.76790	1626.02234	1502.38257	234.74910	1617.48706	1381.33435	90.05968	1579.26147	1510.57544	100.39619	1575.87720	1435.98596	83.74977	1422.76245	1445.97314	36.17569	1093.81763	1433.99243	189.25307	1339.95056	1431.05286	221.32843	1164.27283	1521.49963	5.22330	1255.81519	1272.79382	131.93277	1371.70325	1204.28357	74.25973	1178.17920	1195.60803	33.22068	1073.39233	1168.21765	5.14307	927.13025	1195.50464	30.67902	796.13873	1170.73572	-33.80534	814.37274	1164.80334	-27.23906	723.55347	1594.65552	150.55547	1377.90320	1696.81677	113.10552	1189.10828	1719.06042	130.72513	1071.38013	1731.84839	187.86147	968.38239	1685.06836	293.89645	871.56396	1730.16504	251.42154	847.12195	1723.54333	318.37503	797.63550	1342.59680	223.82155	939.74951	1559.70471	206.71339	934.84943	1358.99048	62.88538	961.68011	1525.98242	56.96115	959.01715	1281.30139	244.76340	638.38281	1321.38208	308.58020	492.12979	1338.98230	315.28571	233.48087	1393.11218	325.30371	66.98200	1440.70862	285.68048	55.44168	1395.76917	468.30115	42.43770	1620.35767	127.18584	597.88440	1609.67188	119.58847	469.67621	1589.82056	-89.61715	312.12354	1538.02710	-239.32469	207.91707	1493.76514	-268.70474	235.86702	1510.16394	-215.49579	51.06170	1436.02466	132.21954	1670.91602												 
96	0.950	1368.85669	240.13472	1627.55029	1500.92017	249.09587	1619.53442	1379.89380	104.69717	1580.00940	1509.17712	114.95364	1577.08960	1434.79980	98.50751	1424.02832	1445.46130	50.83536	1095.70361	1433.22473	204.39450	1341.42139	1430.50891	236.24953	1165.61780	1520.88696	19.90677	1257.88354	1271.89099	147.99606	1373.26624	1202.93323	92.40300	1179.15283	1194.15881	52.36629	1074.12866	1166.85803	26.59123	927.28369	1195.29138	53.33549	796.63464	1169.11353	-10.74994	813.96948	1164.31970	-3.42062	723.14404	1593.33716	165.48325	1379.61975	1695.33362	126.69263	1191.10962	1717.08191	142.91313	1073.03918	1730.69299	197.78658	968.66772	1685.14050	301.89185	868.70062	1729.99487	258.54718	845.82233	1724.17004	324.39545	794.74500	1340.93982	237.55600	941.72729	1558.65149	221.45586	936.18823	1359.48474	76.70107	963.02374	1526.44641	71.44602	959.59961	1280.98157	256.20712	638.37189	1321.38892	319.47382	491.93237	1339.93042	321.97064	233.54482	1393.91064	326.55029	67.09795	1441.24792	286.27576	55.98610	1396.12671	469.01761	41.82991	1620.29602	150.35069	597.49921	1609.86829	147.62930	469.43619	1591.81152	-60.76883	315.31851	1540.18713	-213.34766	216.07764	1495.74292	-239.43474	246.65700	1512.72864	-204.31772	55.45274	1434.27271	146.20607	1672.14026												 
